HIERARCHY
ROOT pelvis
{
	OFFSET 0.000000 0.000000 0.893624
	CHANNELS 6 Xposition Yposition Zposition Xrotation Yrotation Zrotation
	JOINT spine
	{
		OFFSET 0.000000 0.000000 0.000000
		CHANNELS 6 Xposition Yposition Zposition Xrotation Yrotation Zrotation
		JOINT spine.001
		{
			OFFSET 0.000000 -0.015173 0.289521
			CHANNELS 3 Xrotation Yrotation Zrotation
			JOINT neck
			{
				OFFSET 0.000000 0.035332 0.287757
				CHANNELS 6 Xposition Yposition Zposition Xrotation Yrotation Zrotation
				JOINT face
				{
					OFFSET 0.000000 0.003791 0.217184
					CHANNELS 6 Xposition Yposition Zposition Xrotation Yrotation Zrotation
					End Site
					{
						OFFSET 0.000000 -0.031072 -0.008898
					}
				}
			}
			JOINT shoulder.L
			{
				OFFSET 0.000000 0.035332 0.287757
				CHANNELS 6 Xposition Yposition Zposition Yrotation Xrotation Zrotation
				JOINT upper_arm.L
				{
					OFFSET 0.185921 0.000000 0.000000
					CHANNELS 6 Xposition Yposition Zposition Xrotation Yrotation Zrotation
					JOINT forearm.L
					{
						OFFSET 0.313101 0.000132 0.001094
						CHANNELS 6 Xposition Yposition Zposition Xrotation Yrotation Zrotation
						End Site
						{
							OFFSET 0.263484 -0.004478 -0.001507
						}
					}
				}
			}
			JOINT shoulder.R
			{
				OFFSET 0.000000 0.035332 0.287757
				CHANNELS 6 Xposition Yposition Zposition Yrotation Xrotation Zrotation
				JOINT upper_arm.R
				{
					OFFSET -0.185921 0.000000 0.000000
					CHANNELS 6 Xposition Yposition Zposition Xrotation Yrotation Zrotation
					JOINT forearm.R
					{
						OFFSET -0.303975 0.000132 0.001094
						CHANNELS 6 Xposition Yposition Zposition Xrotation Yrotation Zrotation
						End Site
						{
							OFFSET -0.264756 -0.004500 -0.001507
						}
					}
				}
			}
		}
	}
	JOINT pelvis.L
	{
		OFFSET 0.000000 0.000000 0.000000
		CHANNELS 6 Xposition Yposition Zposition Yrotation Xrotation Zrotation
		End Site
		{
			OFFSET 0.115393 0.000000 0.000000
		}
	}
	JOINT pelvis.R
	{
		OFFSET 0.000000 0.000000 0.000000
		CHANNELS 6 Xposition Yposition Zposition Yrotation Xrotation Zrotation
		End Site
		{
			OFFSET -0.115393 0.000000 0.000000
		}
	}
	JOINT thigh.L
	{
		OFFSET 0.115393 0.000000 0.000000
		CHANNELS 6 Xposition Yposition Zposition Xrotation Yrotation Zrotation
		JOINT shin.L
		{
			OFFSET 0.022329 0.000000 -0.426068
			CHANNELS 6 Xposition Yposition Zposition Xrotation Yrotation Zrotation
			JOINT foot.L
			{
				OFFSET 0.020006 0.000000 -0.381744
				CHANNELS 3 Xrotation Yrotation Zrotation
				End Site
				{
					OFFSET 0.018100 -0.184549 -0.077495
				}
			}
			JOINT heel.02.L
			{
				OFFSET 0.020006 0.000000 -0.381744
				CHANNELS 3 Xrotation Yrotation Zrotation
				End Site
				{
					OFFSET 0.098774 0.039353 -0.079644
				}
			}
		}
	}
	JOINT thigh.R
	{
		OFFSET -0.115393 0.000000 0.000000
		CHANNELS 6 Xposition Yposition Zposition Xrotation Yrotation Zrotation
		JOINT shin.R
		{
			OFFSET -0.022775 0.000000 -0.434566
			CHANNELS 6 Xposition Yposition Zposition Xrotation Yrotation Zrotation
			JOINT foot.R
			{
				OFFSET -0.020147 0.000000 -0.384433
				CHANNELS 3 Xrotation Yrotation Zrotation
				End Site
				{
					OFFSET -0.018365 -0.187251 -0.078630
				}
			}
			JOINT heel.02.R
			{
				OFFSET -0.020147 0.000000 -0.384433
				CHANNELS 3 Xrotation Yrotation Zrotation
				End Site
				{
					OFFSET -0.090271 0.039353 -0.068871
				}
			}
		}
	}
}
MOTION
Frames: 4
Frame Time: 0.041667
-0.058127 -0.035153 0.884841 -0.000000 0.000000 -1.424163 0.000000 0.000000 0.000000 -6.117209 1.750675 0.185828 9.992214 0.329831 2.687189 -0.000000 0.035332 0.287757 6.474074 -0.638321 10.797252 0.000000 0.003791 0.217184 6.372828 -0.000000 -0.000001 -0.000000 0.035332 0.287757 -2.854216 0.008726 0.350243 0.185921 0.000000 0.000000 57.241322 58.284559 -88.568449 0.313101 0.000132 0.001094 71.660972 55.507301 -106.304258 -0.000000 0.035332 0.287757 -2.801716 0.008409 0.343841 -0.185921 -0.000000 -0.000000 49.893132 -60.896655 76.538888 -0.303975 0.000132 0.001094 57.688994 -58.068479 88.000178 0.000000 0.000000 0.000000 1.754649 -0.000000 0.000026 0.000000 0.000000 0.000000 1.754678 0.000000 0.000000 0.115339 0.000000 -0.003533 4.822183 -0.444053 0.271511 0.022329 -0.000000 -0.426068 6.310957 -3.042840 0.498170 -13.621211 0.366771 -3.135628 -9.608381 44.390069 32.444239 -0.115339 0.000000 0.003533 9.120959 -5.854173 -0.011693 -0.022775 0.000000 -0.434566 -3.554780 0.470880 0.200927 -10.201598 0.168648 1.650836 -9.750467 -40.158336 -30.392255 
-0.057160 -0.035733 0.886174 -0.000000 0.000000 -1.768863 0.000000 0.000000 0.000000 -6.181896 1.609157 0.171723 9.989402 0.386464 3.149137 0.000000 0.035332 0.287757 6.365248 -0.151708 10.931779 -0.000000 0.003791 0.217184 6.255897 -0.000001 -0.000000 0.000000 0.035332 0.287757 -2.562866 0.007036 0.314573 0.185921 0.000000 -0.000000 56.869480 59.084968 -87.197084 0.313101 0.000132 0.001094 73.141450 55.837206 -107.391283 0.000000 0.035332 0.287757 -2.510442 0.006753 0.308169 -0.185921 0.000000 0.000000 50.589630 -61.232407 77.050421 -0.303975 0.000132 0.001094 57.822162 -58.253440 87.936992 0.000000 -0.000000 0.000000 1.350466 -0.000000 0.000004 0.000000 -0.000000 0.000000 1.350466 -0.000000 0.000000 0.115361 -0.000000 -0.002720 4.993746 -0.314252 0.275540 0.022329 -0.000000 -0.426068 6.308786 -2.991728 0.495196 -13.591521 -0.028908 -2.432974 -10.334228 44.952084 32.689036 -0.115361 -0.000000 0.002720 9.177610 -5.691072 -0.024924 -0.022775 -0.000000 -0.434566 -3.739461 0.284466 0.205306 -10.331855 0.099537 1.802941 -10.425614 -40.663439 -30.486372 
-0.055785 -0.036724 0.887003 -0.000000 0.000000 -2.117110 0.000000 0.000000 0.000000 -6.250648 1.454201 0.156068 9.985582 0.449962 3.667111 0.000000 0.035332 0.287757 6.164590 0.395384 11.107162 -0.000000 0.003791 0.217185 6.283692 0.000000 -0.000002 0.000000 0.035332 0.287757 -2.388253 0.006112 0.293181 0.185921 0.000000 0.000000 56.427925 59.384766 -86.323817 0.313101 0.000132 0.001094 73.861973 55.821193 -108.117257 0.000000 0.035332 0.287757 -2.335792 0.005846 0.286751 -0.185921 0.000000 -0.000000 50.995405 -61.372064 77.407060 -0.303975 0.000132 0.001094 57.623328 -58.202883 87.762050 0.000000 -0.000000 0.000000 1.092929 0.000001 -0.000058 0.000000 -0.000000 0.000000 1.092958 0.000000 0.000000 0.115372 0.000000 -0.002201 5.182051 -0.171345 0.279496 0.022329 -0.000000 -0.426068 6.302022 -2.911032 0.490243 -13.633377 -0.396404 -1.791192 -11.011132 45.543404 33.108403 -0.115372 0.000000 0.002201 9.229327 -5.563452 -0.035415 -0.022775 -0.000000 -0.434566 -3.822198 0.277740 0.209627 -10.561668 -0.040263 2.102966 -10.804919 -40.901816 -30.440480 
-0.053591 -0.038549 0.887413 -0.000000 0.000000 -2.333561 -0.000000 -0.000000 0.000000 -6.366894 1.271633 0.137777 9.981914 0.503134 4.101255 0.000000 0.035332 0.287757 5.934071 0.994083 11.275016 0.000000 0.003791 0.217184 6.353944 -0.000000 0.000001 -0.000000 0.035332 0.287757 -2.333253 0.005829 0.286312 0.185921 0.000000 -0.000000 55.920244 59.160756 -85.971960 0.313101 0.000132 0.001094 73.622554 55.367327 -108.406611 -0.000000 0.035332 0.287757 -2.280791 0.005571 0.279887 -0.185921 -0.000000 -0.000000 51.216477 -61.273388 77.793403 -0.303975 0.000132 0.001094 57.093497 -57.927121 87.462130 -0.000000 0.000000 0.000000 0.990690 -0.000000 -0.000020 -0.000000 0.000000 0.000000 0.990690 -0.000000 0.000000 0.115376 0.000000 -0.001995 5.382904 -0.023542 0.283416 0.022329 0.000000 -0.426068 6.271241 -2.788595 0.481169 -13.726351 -0.655464 -1.350365 -11.543617 46.042814 33.553192 -0.115376 0.000000 0.001995 9.337800 -5.440756 -0.045900 -0.022775 -0.000000 -0.434566 -3.854737 0.422521 0.216270 -10.909357 -0.184683 2.426583 -10.968095 -40.962834 -30.322621 
